<?xml version="1.0" encoding="utf-8"?>
<!-- Generator: Adobe Illustrator 23.0.1, SVG Export Plug-In . SVG Version: 6.00 Build 0)  -->
<svg version="1.1" id="Layer_1" xmlns="http://www.w3.org/2000/svg" xmlns:xlink="http://www.w3.org/1999/xlink" x="0px" y="0px"
	 viewBox="0 0 40.8 50" style="enable-background:new 0 0 40.8 50;" xml:space="preserve">
<style type="text/css">
	.st0{fill:#95C8FA;}
	.st1{fill:#6FB7F8;}
	.st2{fill:#0E8FF3;}
	.st3{fill:#FFFFFF;}
</style>
<title>otherAssets</title>
<polygon class="st0" points="30.4,3.7 30,23.1 20.4,26.7 20.6,6 20.6,6 "/>
<polygon class="st1" points="29,3.1 20.4,5.2 20.4,5.2 17.5,4.3 26.2,2.3 26.2,2.3 "/>
<polygon class="st1" points="23.3,1.5 14.7,3.5 14.7,3.5 12.3,2.7 20.9,0.9 "/>
<polygon class="st2" points="19.9,26.6 10.9,22.6 10.9,3.1 14.4,4.2 14.4,9.5 14.7,8.7 14.7,9.6 15,8.8 15,9.7 15.3,8.9 15.3,9.8 
	15.6,9 15.6,9.9 15.9,9.1 15.9,10 16.2,9.2 16.2,4.8 20.1,6 "/>
<path class="st3" d="M31,3.1C31,3.1,31,3.1,31,3.1C31,3,31,3,31,3.1C31,3,31,3,31,3c0,0,0,0,0,0c0,0,0,0,0,0c0,0,0,0,0,0
	c0,0,0,0,0,0c0,0,0,0,0,0c0,0,0,0,0,0c0,0,0,0,0,0c0,0,0,0,0,0c0,0,0,0-0.1,0l0,0l-4.4-1.2h0l-1.2-0.3h0L21,0c0,0-0.1,0-0.1,0
	L10.6,2.2c-0.1,0-0.1,0-0.1,0.1c0,0,0,0,0,0c0,0-0.1,0.1-0.1,0.2c0,0,0,0,0,0c0,0,0,0.1,0,0.1c0,0,0,0,0,0v20.2
	c0,0.2,0.1,0.4,0.2,0.4l9.5,4.3l0,0c0,0,0,0,0,0h0c0,0,0,0,0,0h0c0,0,0,0,0,0c0,0,0,0,0,0c0,0,0,0,0,0l0,0l10.1-3.7
	c0.1,0,0.2-0.2,0.2-0.4L31,3.1L31,3.1C31,3.1,31,3.1,31,3.1z M20.9,0.8l2.4,0.7l-8.6,1.9l0,0l-2.5-0.8L20.9,0.8z M10.9,22.6V3.1
	l3.5,1.1l0,5.3l0.3-0.8l0,0.9L15,8.8l0,0.9l0.3-0.8l0,0.9L15.6,9l0,0.9l0.3-0.8l0,0.9l0.3-0.8l0-4.4L20.1,6l0,0l-0.2,20.6L10.9,22.6
	z M20.4,5.2L20.4,5.2l-2.8-0.9l8.7-2l0,0L29,3.1L20.4,5.2z M30,23.1l-9.6,3.5L20.6,6l0,0l9.8-2.4L30,23.1z"/>
<polygon class="st0" points="20.1,25.4 20,44.9 10.4,48.7 10.3,28 10.3,28 "/>
<polygon class="st1" points="18.7,24.9 10.1,27.2 10.1,27.2 7.2,26.4 15.9,24.2 15.9,24.2 "/>
<polygon class="st1" points="13,23.5 4.4,25.6 4.4,25.6 1.9,24.9 10.5,22.9 "/>
<polygon class="st2" points="9.8,48.7 0.8,44.9 0.6,25.4 4.1,26.4 4.2,31.7 4.4,30.9 4.5,31.8 4.7,31 4.8,31.9 5,31.1 5.1,32 
	5.3,31.2 5.4,32.1 5.6,31.3 5.7,32.1 5.9,31.3 5.9,26.9 9.8,28 "/>
<path class="st3" d="M20.6,24.8C20.6,24.8,20.6,24.8,20.6,24.8C20.6,24.8,20.6,24.7,20.6,24.8c0-0.1,0-0.1,0-0.1c0,0,0,0,0,0
	c0,0,0,0,0,0c0,0,0,0,0,0c0,0,0,0,0-0.1c0,0,0,0,0,0l0,0c0,0,0,0,0,0c0,0,0,0-0.1,0h0l-4.4-1.1h0L14.7,23h0l-4.2-1c0,0-0.1,0-0.1,0
	L0.2,24.5c-0.1,0-0.1,0-0.1,0.1c0,0,0,0,0,0c0,0-0.1,0.1-0.1,0.2c0,0,0,0,0,0c0,0,0,0.1,0,0.1c0,0,0,0,0,0l0.3,20.2
	c0,0.2,0.1,0.3,0.2,0.4l9.6,4l0,0c0,0,0,0,0,0c0,0,0,0,0,0c0,0,0,0,0,0h0h0h0c0,0,0,0,0,0l0,0l10.1-4c0.1,0,0.2-0.2,0.2-0.4
	L20.6,24.8L20.6,24.8C20.6,24.9,20.6,24.8,20.6,24.8z M10.5,22.9l2.4,0.6l-8.6,2.2l0,0l-2.5-0.7L10.5,22.9z M0.8,44.9L0.6,25.4
	l3.5,1l0.1,5.3l0.2-0.8l0,0.9L4.7,31l0,0.9L5,31.1l0,0.9l0.3-0.8l0,0.9l0.3-0.8l0,0.9l0.3-0.8l0-4.4L9.8,28l0,0l0.1,20.6L0.8,44.9z
	 M10.1,27.2L10.1,27.2l-2.8-0.8l8.7-2.2l0,0l2.8,0.7L10.1,27.2z M20,44.9l-9.5,3.8L10.3,28l0,0l9.7-2.6L20,44.9z"/>
<polygon class="st0" points="40.3,26 39.9,45.5 30.3,49 30.5,28.4 30.5,28.4 "/>
<polygon class="st1" points="38.9,25.5 30.2,27.6 30.2,27.6 27.4,26.7 36.1,24.7 36.1,24.7 "/>
<polygon class="st1" points="33.2,23.9 24.6,25.8 24.6,25.8 22.1,25.1 30.8,23.2 "/>
<polygon class="st2" points="29.7,49 20.8,44.9 20.8,25.5 24.3,26.6 24.3,31.9 24.6,31.1 24.6,32 24.9,31.2 24.9,32.1 25.2,31.3 
	25.2,32.2 25.5,31.4 25.5,32.3 25.8,31.5 25.8,32.4 26.1,31.6 26.1,27.2 29.9,28.4 "/>
<path class="st3" d="M40.8,25.5C40.8,25.5,40.8,25.5,40.8,25.5C40.8,25.4,40.8,25.4,40.8,25.5c0-0.1,0-0.1,0-0.1c0,0,0,0,0,0
	c0,0,0,0,0,0c0,0,0,0,0,0c0,0,0,0,0,0c0,0,0,0,0,0c0,0,0,0,0,0c0,0,0,0,0,0c0,0,0,0,0,0c0,0,0,0-0.1,0l0,0l-4.4-1.2h0L35,23.5h0
	l-4.1-1.2c0,0-0.1,0-0.1,0l-10.3,2.2c-0.1,0-0.1,0-0.1,0.1c0,0,0,0,0,0c0,0-0.1,0.1-0.1,0.2c0,0,0,0,0,0c0,0,0,0.1,0,0.1
	c0,0,0,0,0,0v20.2c0,0.2,0.1,0.4,0.2,0.4l9.5,4.3l0,0c0,0,0,0,0,0h0c0,0,0,0,0,0h0h0c0,0,0,0,0,0c0,0,0,0,0,0l0,0l10.1-3.7
	c0.1,0,0.2-0.2,0.2-0.4L40.8,25.5L40.8,25.5C40.8,25.5,40.8,25.5,40.8,25.5z M30.8,23.2l2.4,0.7l-8.6,1.9l0,0l-2.5-0.8L30.8,23.2z
	 M20.8,44.9V25.5l3.5,1.1l0,5.3l0.3-0.8l0,0.9l0.3-0.8l0,0.9l0.3-0.8l0,0.9l0.3-0.8l0,0.9l0.3-0.8l0,0.9l0.3-0.8l0-4.4l3.8,1.2l0,0
	L29.7,49L20.8,44.9z M30.2,27.6L30.2,27.6l-2.8-0.9l8.7-2l0,0l2.8,0.8L30.2,27.6z M39.9,45.5L30.3,49l0.2-20.6l0,0l9.8-2.4
	L39.9,45.5z"/>
</svg>
