<?xml version="1.0" encoding="utf-8"?>
<!-- Generator: Adobe Illustrator 23.0.1, SVG Export Plug-In . SVG Version: 6.00 Build 0)  -->
<svg version="1.1" id="Layer_1" xmlns="http://www.w3.org/2000/svg" xmlns:xlink="http://www.w3.org/1999/xlink" x="0px" y="0px"
	 viewBox="0 0 221.34 221.34" style="enable-background:new 0 0 221.34 221.34;" xml:space="preserve">
<style type="text/css">
	.st0{fill:#FFFFFF;}
</style>
<path class="st0" d="M23.87,138.4c-0.25,1.41-0.5,2.82-0.76,4.22c-0.51,2.82-1.04,5.64-1.58,8.46c-0.13,0.7-0.26,1.39-0.4,2.09
	c-0.31,1.65-0.63,3.3-0.96,4.96c-0.27,1.39-0.54,2.78-0.82,4.17c-0.54,2.78-1.09,5.59-1.65,8.43C6.5,153.43,0,132.81,0,110.67
	c0-21.42,6.09-41.4,16.62-58.34c-0.03,0.26-0.06,0.51-0.08,0.76c-0.08,0.62-0.14,1.24-0.19,1.86c-0.07,0.65-0.12,1.29-0.15,1.92
	c-0.02,0.15-0.03,0.3-0.03,0.45c-0.03,0.33-0.05,0.66-0.06,0.99c0,0.09-0.01,0.18-0.01,0.26c-0.01,0.28-0.03,0.55-0.03,0.82
	c-0.02,0.36-0.03,0.72-0.03,1.08c-0.01,0.49-0.02,0.98-0.02,1.47v0.1c0,0.66,0.01,1.31,0.03,1.96c0.03,1.37,0.1,2.72,0.21,4.06
	c0.03,0.3,0.05,0.6,0.08,0.9c0.06,0.74,0.14,1.47,0.23,2.2c0.06,0.52,0.13,1.05,0.21,1.56c0.05,0.35,0.1,0.7,0.15,1.04
	c0.02,0.14,0.04,0.28,0.07,0.41c0.11,0.68,0.22,1.35,0.35,2.02c0.44,2.31,0.98,4.59,1.61,6.86c0.48,1.7,1.01,3.39,1.59,5.08
	c0.19,0.56,0.39,1.12,0.6,1.68c0.29,0.79,0.22,1.86-0.05,2.85c-4.12,5.84-6.53,12.96-6.53,20.64c0,9.3,3.53,17.77,9.32,24.14
	C23.93,137.78,23.92,138.1,23.87,138.4z"/>
<path class="st0" d="M185.13,192.56c-19.66,17.88-45.79,28.78-74.46,28.78c-27.09,0-51.91-9.74-71.15-25.9
	c-0.05-0.18-0.09-0.36-0.13-0.54c-0.04-0.17-0.07-0.34-0.09-0.51c-0.03-0.14-0.05-0.29-0.06-0.44c-0.02-0.2-0.04-0.4-0.05-0.61
	c-0.02-0.25-0.03-0.51-0.03-0.77c-0.08-14.61,2.06-28.84,6.91-42.63c0.11-0.31,0.2-0.64,0.3-0.96c1.35,0.16,2.72,0.24,4.11,0.24
	c5.14,0,10.03-1.08,14.45-3.02c12.28,8.39,24.59,16.73,36.81,25.21c1.13,0.79,2.29,2.43,2.36,3.74
	c0.55,10.05,5.33,17.23,14.71,20.56c9.67,3.45,18.33,1.23,25.29-6.68c0.67-0.76,1.95-1.57,2.83-1.46
	C159.49,189.12,172.03,190.81,185.13,192.56z"/>
<path class="st0" d="M214.74,148.39c-3.27,9.05-7.7,17.54-13.1,25.31h-0.01c-0.11,0.04-0.22,0.07-0.33,0.1
	c-0.02,0.01-0.05,0.02-0.07,0.02c-0.15,0.04-0.29,0.07-0.43,0.09c-16.57,2.76-32.86,0.82-48.93-3.46c-1.54-0.41-3.24-2.13-3.89-3.66
	c-5.42-12.75-17.84-17.83-30.92-12.61c-1.44,0.57-3.68,0.65-4.93-0.09c-6.3-3.71-12.51-7.6-18.52-11.76
	c-4.41-3.05-8.59-6.44-12.83-9.75c3.55-5.57,5.61-12.18,5.61-19.28c0-6.55-1.76-12.7-4.83-17.99c0.26-0.43,0.63-0.85,1.14-1.27
	c9.81-8.22,19.51-16.56,29.14-24.75c12.51,10.49,24.35,20.41,36.2,30.33c1.4,1.17,2.8,2.38,4.32,3.39c2.21,1.48,2.76,3.03,1.99,5.84
	c-2.99,10.92,0.6,20.86,9.25,26.88c8.55,5.95,19.07,5.81,28.5-0.4c0.55-0.36,1.12-0.68,1.96-1.19
	C200.93,138.87,207.52,143.42,214.74,148.39z"/>
<path class="st0" d="M221.34,110.67c0,9.43-1.18,18.59-3.4,27.33c-0.75-0.59-1.5-1.17-2.23-1.75c-0.64-0.5-1.28-1-1.91-1.5
	c-0.47-0.37-0.94-0.73-1.4-1.1c-3.62-2.84-7.09-5.59-10.47-8.45c-0.77-0.65-0.77-2.67-0.56-3.96c3.35-20.48-13.26-34.62-33-28.13
	c-1.33,0.43-3.48,0.46-4.4-0.32c-5.67-4.88-11.26-9.88-16.57-15.15c-5.99-5.95-11.66-12.24-17.58-18.49
	c20.1-10.41,41.51-18.05,65.01-18.18c0.2,0,0.4,0.01,0.62,0.05c0.11,0.01,0.21,0.03,0.32,0.05c0.22,0.04,0.46,0.1,0.69,0.17
	c0.18,0.06,0.37,0.13,0.56,0.21C212.24,60.4,221.34,84.47,221.34,110.67z"/>
<path class="st0" d="M177.52,22.46c-0.33-0.02-0.66-0.04-0.99-0.06c-0.71-0.04-1.42-0.08-2.12-0.11c-0.16-0.01-0.31-0.01-0.47-0.02
	c-0.74-0.03-1.48-0.05-2.21-0.06c-10.43-0.24-20.58,0.75-30.52,2.95c-1.92,0.43-3.84,0.9-5.76,1.42c-1.27,0.34-2.54,0.71-3.81,1.1
	c-1.27,0.38-2.53,0.79-3.79,1.22c-1.27,0.42-2.52,0.87-3.78,1.34c-1.26,0.46-2.51,0.95-3.76,1.46c-1.25,0.51-2.5,1.04-3.74,1.59
	c-1.25,0.54-2.49,1.11-3.73,1.7c-1.86,0.89-3.72,1.82-5.57,2.79c-3.76-4.14-7.53-8.3-11.36-12.51c-1.9-2.1-3.83-4.22-5.77-6.36
	c-0.39-0.42-0.77-0.85-1.15-1.27c-0.91-1-1.83-2.01-2.76-3.03c-2.84-3.14-5.73-6.32-8.68-9.56C88.01,1.77,99.13,0,110.67,0
	C135.79,0,158.95,8.37,177.52,22.46z"/>
<path class="st0" d="M90.29,48.26c-2.74,2.15-6.09,4.5-9.11,7.23c-7.64,6.91-15.05,14.07-22.74,20.93c-0.68,0.6-1.57,1.05-2.53,1.37
	c-1.77-0.26-3.58-0.4-5.43-0.4c-4.08,0-8,0.68-11.65,1.94c-0.37,0.02-0.75,0.04-1.13,0.06c-6.19-13.94-9.74-28.76-7.64-44.55
	c8.89-9.44,19.41-17.32,31.12-23.18C71.32,24.4,80.68,36.17,90.29,48.26z"/>
</svg>
