<svg xmlns="http://www.w3.org/2000/svg" width="1237.56" height="231.97" viewBox="0 0 1237.56 231.97"><defs><style>.a{fill:#fff;}</style></defs><title>vnlogo</title><path class="a" d="M362.52,59l33.54,84.05,34-84.05h20l-54.44,130.4L342.48,59Z"/><path class="a" d="M480.27,59V180.33H462V59Z"/><path class="a" d="M574.12,77.1l-14.85,8.8q-4.17-7.23-7.93-9.43A18.48,18.48,0,0,0,541.21,74a18.72,18.72,0,0,0-12.65,4.32,13.4,13.4,0,0,0-5,10.68q0,8.88,13.2,14.3l12.1,4.95q14.77,6,21.6,14.56t6.83,21.1q0,16.73-11.15,27.65t-27.89,11q-15.79,0-26.08-9.35t-12.65-26.31L518,142.78q1.26,10.68,4.4,14.77,5.66,7.84,16.5,7.85a19.19,19.19,0,0,0,14.22-5.73,19.86,19.86,0,0,0,5.66-14.53,20.6,20.6,0,0,0-1-6.49,16.71,16.71,0,0,0-3.06-5.42,24.49,24.49,0,0,0-5.38-4.63,52.24,52.24,0,0,0-7.85-4.12l-11.7-4.87q-24.9-10.53-24.9-30.8A29.21,29.21,0,0,1,515.39,66q10.44-9.27,26-9.27Q562.33,56.68,574.12,77.1Z"/><path class="a" d="M614.58,59V180.33h-18.3V59Z"/><path class="a" d="M634.46,119.13q0-25.62,18.77-44a61.8,61.8,0,0,1,44.93-18.38q25.92,0,44.46,18.54t18.62,44.54q0,26.16-18.69,44.38t-45.32,18.3q-23.49,0-42.18-16.26Q634.46,148.28,634.46,119.13Zm18.46.24q0,20.1,13.51,33.07t31,13q19.1,0,32.21-13.2,13.13-13.37,13.12-32.52,0-19.41-13-32.52T697.94,74Q679,74,666,87.16,652.91,100.2,652.92,119.37Z"/><path class="a" d="M784.25,180.32V50.79l88.45,92.54V59H891V187.7L802.55,95.4v84.92Z"/><path class="a" d="M910.8,119.13q0-25.62,18.77-44A61.8,61.8,0,0,1,974.5,56.76q25.92,0,44.46,18.54t18.62,44.54q0,26.16-18.69,44.38t-45.33,18.3q-23.49,0-42.18-16.26Q910.8,148.28,910.8,119.13Zm18.46.24q0,20.1,13.51,33.07t31,13q19.1,0,32.21-13.2a44.75,44.75,0,0,0,13.12-32.52q0-19.41-13-32.52T974.27,74q-18.93,0-32,13.2Q929.27,100.2,929.26,119.37Z"/><path class="a" d="M1061,59l33.54,84.05,34-84.05h20l-54.44,130.4L1040.92,59Z"/><path class="a" d="M1217.52,181.19l-33.54-84-34,84.05h-20l54.44-130.4,53.18,130.4Z"/><path class="a" d="M157.13,181.19l-33.54-84-34,84.05h-20L124,50.79l53.18,130.4Z"/><polygon class="a" points="0 0 246.7 0 246.7 231.97 207.03 231.97 199.48 213.47 228.2 213.47 228.2 18.51 18.51 18.51 18.51 213.47 49.17 213.47 40.78 231.97 0 231.97 0 0"/></svg>