<svg xmlns="http://www.w3.org/2000/svg" width="23.91" height="27.54" viewBox="0 0 23.91 27.54"><defs><style>.a{fill:#fff;}</style></defs><title>customer</title><path class="a" d="M23.27,25.82H22.2V1.29A1.16,1.16,0,0,0,22.1.8a1.19,1.19,0,0,0-.28-.42A1.25,1.25,0,0,0,21.41.1a1.19,1.19,0,0,0-.49-.1H3A1.16,1.16,0,0,0,2.5.1a1.19,1.19,0,0,0-.42.28A1.17,1.17,0,0,0,1.81.8a1.16,1.16,0,0,0-.1.49V25.82H.64A.64.64,0,0,0,.19,26a.66.66,0,0,0-.19.46v1.07H23.91V26.47a.66.66,0,0,0-.19-.46A.64.64,0,0,0,23.27,25.82ZM6.83,4.08a.65.65,0,0,1,.64-.64H9.61a.65.65,0,0,1,.64.64V6.24a.65.65,0,0,1-.64.64H7.48A.66.66,0,0,1,7,6.69a.64.64,0,0,1-.19-.45Zm0,5.17A.66.66,0,0,1,7,8.79a.64.64,0,0,1,.45-.19H9.61a.64.64,0,0,1,.45.19.66.66,0,0,1,.19.46V11.4a.66.66,0,0,1-.19.46.64.64,0,0,1-.45.19H7.48a.65.65,0,0,1-.65-.65Zm2.78,8H7.48A.66.66,0,0,1,7,17a.68.68,0,0,1-.19-.46V14.42a.65.65,0,0,1,.65-.65H9.61a.64.64,0,0,1,.45.19.66.66,0,0,1,.19.46v2.15a.68.68,0,0,1-.19.46A.64.64,0,0,1,9.61,17.22Zm4.06,8.6H10.24V21.3a.68.68,0,0,1,.19-.45.66.66,0,0,1,.46-.19H13a.65.65,0,0,1,.64.64Zm3.41-9.25a.68.68,0,0,1-.19.46.64.64,0,0,1-.45.19H14.3a.66.66,0,0,1-.46-.19.67.67,0,0,1-.18-.46V14.42a.65.65,0,0,1,.18-.46.66.66,0,0,1,.46-.19h2.13a.64.64,0,0,1,.45.19.66.66,0,0,1,.19.46Zm0-5.16a.65.65,0,0,1-.64.64H14.3a.66.66,0,0,1-.46-.19.63.63,0,0,1-.18-.45V9.25a.63.63,0,0,1,.18-.45.66.66,0,0,1,.46-.19h2.13a.65.65,0,0,1,.64.64Zm0-5.17a.66.66,0,0,1-.19.46.64.64,0,0,1-.45.19H14.3a.66.66,0,0,1-.46-.19.65.65,0,0,1-.18-.46V4.09a.65.65,0,0,1,.18-.46.66.66,0,0,1,.46-.19h2.13a.64.64,0,0,1,.45.19.66.66,0,0,1,.19.46Z" transform="translate(0)"/></svg>