<?xml version="1.0" encoding="utf-8"?>
<!-- Generator: Adobe Illustrator 23.0.1, SVG Export Plug-In . SVG Version: 6.00 Build 0)  -->
<svg version="1.1" id="Layer_1" xmlns="http://www.w3.org/2000/svg" xmlns:xlink="http://www.w3.org/1999/xlink" x="0px" y="0px"
	 viewBox="0 0 43.4 50" style="enable-background:new 0 0 43.4 50;" xml:space="preserve">
<style type="text/css">
	.st0{fill:#e5e5e5;}
</style>
<title>customer</title>
<path class="st0" d="M42.3,46.9h-1.9V2.3c0-0.3-0.1-0.6-0.2-0.9c-0.1-0.3-0.3-0.5-0.5-0.8c-0.2-0.2-0.5-0.4-0.7-0.5
	C38.6,0.1,38.3,0,38,0H5.4C5.1,0,4.8,0.1,4.5,0.2C4.3,0.3,4,0.5,3.8,0.7C3.6,0.9,3.4,1.2,3.3,1.5C3.2,1.7,3.1,2,3.1,2.3v44.6H1.2
	c-0.3,0-0.6,0.1-0.8,0.3C0.1,47.4,0,47.7,0,48.1V50h43.4v-1.9c0-0.3-0.1-0.6-0.3-0.8C42.9,47,42.6,46.9,42.3,46.9z M12.4,7.4
	c0-0.6,0.5-1.2,1.2-1.2h3.9c0.6,0,1.2,0.5,1.2,1.2v3.9c0,0.6-0.5,1.2-1.2,1.2h-3.9c-0.3,0-0.6-0.1-0.9-0.3c-0.2-0.2-0.3-0.5-0.3-0.8
	L12.4,7.4z M12.4,16.8c0-0.3,0.1-0.6,0.3-0.8c0.2-0.2,0.5-0.3,0.8-0.3h3.9c0.3,0,0.6,0.1,0.8,0.3c0.2,0.2,0.3,0.5,0.3,0.8v3.9
	c0,0.3-0.1,0.6-0.3,0.8c-0.2,0.2-0.5,0.3-0.8,0.3h-3.9c-0.7,0-1.2-0.5-1.2-1.2V16.8z M17.5,31.3h-3.9c-0.3,0-0.7-0.2-0.9-0.5
	c-0.2-0.2-0.3-0.5-0.3-0.8v-3.9c0-0.7,0.5-1.2,1.2-1.2h3.9c0.3,0,0.6,0.1,0.8,0.3c0.2,0.2,0.3,0.5,0.3,0.8v3.9
	c0,0.3-0.1,0.6-0.3,0.8C18.1,31.1,17.8,31.3,17.5,31.3L17.5,31.3z M24.8,46.9h-6.2v-8.3c0-0.3,0.1-0.6,0.3-0.8
	c0.2-0.2,0.5-0.3,0.8-0.3h3.8c0.6,0,1.2,0.5,1.2,1.2L24.8,46.9z M31,30.1c0,0.3-0.1,0.6-0.3,0.8c-0.2,0.2-0.5,0.3-0.8,0.3H26
	c-0.3,0-0.6-0.1-0.8-0.3c-0.2-0.2-0.3-0.5-0.3-0.8v-4c0-0.3,0.1-0.6,0.3-0.8c0.2-0.2,0.5-0.3,0.8-0.3h3.9c0.3,0,0.6,0.1,0.8,0.3
	c0.2,0.2,0.3,0.5,0.3,0.8L31,30.1z M31,20.8c0,0.6-0.5,1.2-1.2,1.2H26c-0.3,0-0.6-0.1-0.8-0.3c-0.2-0.2-0.3-0.5-0.3-0.8v-4
	c0-0.3,0.1-0.6,0.3-0.8c0.2-0.2,0.5-0.3,0.8-0.3h3.9c0.6,0,1.2,0.5,1.2,1.2L31,20.8z M31,11.4c0,0.3-0.1,0.6-0.3,0.8
	c-0.2,0.2-0.5,0.3-0.8,0.3H26c-0.3,0-0.6-0.1-0.8-0.3c-0.2-0.2-0.3-0.5-0.3-0.8v-4c0-0.3,0.1-0.6,0.3-0.8c0.2-0.2,0.5-0.3,0.8-0.3
	h3.9c0.3,0,0.6,0.1,0.8,0.3C30.9,6.8,31,7.1,31,7.4L31,11.4z"/>
</svg>
