<svg xmlns="http://www.w3.org/2000/svg" viewBox="0 0 257 296.02"><defs><style>.a{fill:#fff;}</style></defs><title>database4-white</title><ellipse class="a" cx="128.5" cy="43.01" rx="128.5" ry="43.01"/><path class="a" d="M222.37,83.64C198.78,91.88,165.45,97,128.5,97S58.22,91.88,34.63,83.64C16.05,77.15,3.52,68.74,0,59.39V113c0,16.48,27.68,30.79,68.34,38a347.76,347.76,0,0,0,60.16,5,347.76,347.76,0,0,0,60.16-5C229.32,143.8,257,129.49,257,113V59.39C253.48,68.74,241,77.15,222.37,83.64Z"/><path class="a" d="M222.37,153.64C198.78,161.88,165.45,167,128.5,167s-70.28-5.14-93.87-13.38C16.05,147.15,3.52,138.74,0,129.39V183c0,16.48,27.68,30.79,68.34,38a347.76,347.76,0,0,0,60.16,5,347.76,347.76,0,0,0,60.16-5C229.32,213.8,257,199.49,257,183V129.39C253.48,138.74,241,147.15,222.37,153.64Z"/><path class="a" d="M222.37,223.64C198.78,231.88,165.45,237,128.5,237s-70.28-5.14-93.87-13.38C16.05,217.15,3.52,208.74,0,199.39V253c0,16.48,27.68,30.79,68.34,38a347.76,347.76,0,0,0,60.16,5,347.76,347.76,0,0,0,60.16-5C229.32,283.8,257,269.49,257,253V199.39C253.48,208.74,241,217.15,222.37,223.64Z"/></svg>