<?xml version="1.0" encoding="utf-8"?>
<!-- Generator: Adobe Illustrator 23.0.1, SVG Export Plug-In . SVG Version: 6.00 Build 0)  -->
<svg version="1.1" id="Layer_1" xmlns="http://www.w3.org/2000/svg" xmlns:xlink="http://www.w3.org/1999/xlink" x="0px" y="0px"
	 viewBox="0 0 43.4 50" style="enable-background:new 0 0 43.4 50;" xml:space="preserve">
<style type="text/css">
	.st0{fill:#e5e5e5;}
</style>
<title>database4-white</title>
<ellipse class="st0" cx="21.7" cy="7.3" rx="21.7" ry="7.3"/>
<path class="st0" d="M37.6,14.1c-4,1.4-9.6,2.3-15.9,2.3S9.8,15.5,5.8,14.1C2.7,13,0.6,11.6,0,10v9.1c0,2.8,4.7,5.2,11.5,6.4
	c3.4,0.6,6.8,0.9,10.2,0.8c3.4,0,6.8-0.3,10.2-0.8c6.9-1.2,11.5-3.6,11.5-6.4V10C42.8,11.6,40.7,13,37.6,14.1z"/>
<path class="st0" d="M37.6,26c-4,1.4-9.6,2.3-15.9,2.3S9.8,27.3,5.8,25.9c-3.1-1.1-5.3-2.5-5.8-4.1v9.1c0,2.8,4.7,5.2,11.5,6.4
	c3.4,0.6,6.8,0.9,10.2,0.8c3.4,0,6.8-0.3,10.2-0.8c6.9-1.2,11.5-3.6,11.5-6.4v-9.1C42.8,23.4,40.7,24.9,37.6,26z"/>
<path class="st0" d="M37.6,37.8c-4,1.4-9.6,2.3-15.9,2.3S9.8,39.2,5.8,37.8c-3.1-1.1-5.3-2.5-5.8-4.1v9.1c0,2.8,4.7,5.2,11.5,6.4
	c3.4,0.6,6.8,0.9,10.2,0.8c3.4,0,6.8-0.3,10.2-0.8c6.9-1.2,11.5-3.6,11.5-6.4v-9.1C42.8,35.3,40.7,36.7,37.6,37.8z"/>
</svg>
