<svg xmlns="http://www.w3.org/2000/svg" width="552" height="357" viewBox="0 0 552 357"><defs><style>.a{fill:#fff;}</style></defs><title>heart-rate</title><path class="a" d="M552,12V345a12,12,0,0,1-12,12H12A12,12,0,0,1,0,345V198.75H163A23.84,23.84,0,0,0,185.17,183l14-37.2,44.55,139.49a24,24,0,0,0,21.73,17h.93a23.93,23.93,0,0,0,22-15.26l53.6-132.8,15.19,31a23.7,23.7,0,0,0,21.19,13.55h46.89c13.14,0,23.83-11.12,23.83-24.8s-10.69-24.8-23.83-24.8H392.88L361,84.06c-4.21-8.57-12.56-13.92-22.13-13.5a24,24,0,0,0-21.08,15.2L268.85,206.9,223.54,65a24,24,0,0,0-22-17c-9.81-.36-19.15,6-22.83,15.75l-32.06,85.33H0V12A12,12,0,0,1,12,0H540A12,12,0,0,1,552,12Z"/></svg>