<svg width="56" height="55" viewBox="0 0 56 55" fill="none" xmlns="http://www.w3.org/2000/svg">
<path d="M25.1497 54.9168C19.8999 54.3995 15.1737 52.5824 11.0313 49.4887C4.75376 44.8004 0.854798 37.8407 0.0951069 29.9677C-0.0828466 28.1238 -0.0054231 25.4039 0.280062 23.4694C1.65379 14.1617 7.82742 6.12481 16.5293 2.31603C18.7174 1.35824 21.2994 0.618036 23.6394 0.277615C26.1838 -0.0925384 29.2272 -0.0925384 31.7715 0.277615C41.1464 1.64149 49.2414 7.77084 53.0777 16.4103C54.0424 18.5828 54.7879 21.1462 55.1308 23.4694C55.5036 25.9955 55.5036 29.0171 55.1308 31.5432C54.0747 38.6992 50.1323 45.2418 44.2616 49.5813C40.1382 52.6293 35.4113 54.4216 30.1846 54.9187C29.0361 55.0279 26.2666 55.0269 25.1497 54.9168V54.9168ZM24.2805 36.1862V33.2929H27.7054H31.1304V36.1862V39.0796H33.8944H36.6584V33.7702V28.4608H38.461C39.4524 28.4608 40.2636 28.4385 40.2636 28.4114C40.2636 28.3363 34.3062 22.4355 34.2304 22.4355C34.1941 22.4355 32.7062 20.9876 30.9238 19.2178L27.6834 16.0001L21.4153 22.1784C17.9679 25.5765 15.1473 28.3801 15.1473 28.4087C15.1473 28.4374 15.9719 28.4608 16.9799 28.4608H18.8126V33.7702V39.0796H21.5465H24.2805V36.1862Z" fill="white"/>
</svg>
