<svg width="76" height="81" viewBox="0 0 76 81" fill="none" xmlns="http://www.w3.org/2000/svg">
<path d="M3.23999 79.9168L25.768 65.2464H66.072C71.44 65.2464 75.752 61.0912 75.752 55.9184V9.87201C75.752 4.69921 71.44 0.544006 66.072 0.544006H9.92799C4.55999 0.544006 0.247986 4.69921 0.247986 9.87201V48.88V55.8336V78.3056C0.247986 79.9168 2.00799 80.7648 3.23999 79.9168ZM35.008 15.0448H40.992C41.696 15.0448 42.224 15.6384 42.224 16.232L41.608 39.6368C41.608 40.2304 41.08 40.6544 40.552 40.6544H35.536C34.92 40.6544 34.48 40.2304 34.48 39.6368L33.864 16.232C33.776 15.5536 34.304 15.0448 35.008 15.0448ZM33.776 45.9968C33.776 44.9792 34.568 44.216 35.624 44.216H40.376C41.432 44.216 42.224 44.9792 42.224 45.9968V48.9648C42.224 49.9824 41.432 50.7456 40.376 50.7456H35.624C34.568 50.7456 33.776 49.9824 33.776 48.9648V45.9968Z" fill="#FF0000"/>
</svg>
