<svg width="190" height="218" viewBox="0 0 190 218" fill="none" xmlns="http://www.w3.org/2000/svg">
<path d="M47.7982 0.633255L1.74973 27.2206L0.60202 29.2211V82.3912L1.74973 84.3963L44.3275 108.978L1.74973 133.56L0.60202 135.561V188.735L1.74973 190.736L47.7982 217.323H50.1122L96.1606 190.736L97.3084 188.735V139.567L139.886 164.153H142.205L188.249 137.566L189.401 135.561V82.3906C189.409 81.9137 189.269 81.4461 189.001 81.0516C188.733 80.6572 188.349 80.3552 187.903 80.1874L142.205 53.8025H139.887L97.3088 78.3891V29.2205C97.3119 28.7722 97.1845 28.3326 96.9423 27.9553C96.7 27.578 96.3534 27.2795 95.9444 27.0957L50.1127 0.633255H47.7982ZM5.21596 33.2261L46.6458 57.1447V104.986L5.21596 81.0489V33.2261ZM92.6889 33.2308V81.0489L51.2635 104.972V57.1439L73.126 44.5188L92.6889 33.2308ZM97.3075 86.3965L138.737 110.319V158.156L97.3075 134.219V86.3965ZM184.78 86.3965V134.219L143.351 158.142V110.319L165.218 97.6897L184.78 86.3965ZM92.6924 86.4011V131.555L53.5862 108.978L92.6924 86.4011ZM5.21953 139.567L46.6493 163.49V211.326L5.21953 187.395V139.567ZM92.6924 139.571V187.394L51.2671 211.312V163.49L73.1295 150.86L92.6924 139.571Z" fill="white"/>
</svg>
