<svg xmlns="http://www.w3.org/2000/svg" width="496.98" height="411.29" viewBox="0 0 496.98 411.29"><defs><style>.a{fill:#95c8fa;}.b{fill:#6fb7f8;}.c{fill:#0e8ff3;}.d{fill:#fff;}</style></defs><title>otherAssets</title><polygon class="a" points="369.87 30.11 365.37 190.38 248.75 219.3 251.07 49.55 251.08 49.55 369.87 30.11"/><polygon class="b" points="353.31 25.72 247.71 43.01 247.69 43.01 213.25 35.7 319.37 19.31 319.38 19.31 353.31 25.72"/><polygon class="b" points="283.93 12.64 179.4 28.51 179.39 28.51 149.28 22.13 254.28 7.04 283.93 12.64"/><polygon class="c" points="241.75 219.07 132.77 185.63 132.78 25.77 175.78 34.9 175.69 78.27 178.83 71.97 179.23 79.24 182.48 72.72 182.88 79.98 186.12 73.46 186.51 80.73 189.75 74.21 190.15 81.48 193.39 74.96 193.78 82.23 197.01 75.77 197.28 39.47 244.07 49.4 241.75 219.07"/><path class="d" d="M377,25.65a2.43,2.43,0,0,0-.08-.47c0-.09-.05-.19-.08-.28a2.48,2.48,0,0,0-.13-.35.91.91,0,0,0-.07-.14.75.75,0,0,0-.1-.2,2.2,2.2,0,0,0-.21-.32,2.17,2.17,0,0,0-.24-.29,3.44,3.44,0,0,0-.27-.27,1.5,1.5,0,0,0-.25-.19,3.14,3.14,0,0,0-.39-.24,2.23,2.23,0,0,0-.41-.2,4.24,4.24,0,0,0-.61-.17l-.27-.05L320.09,12.33l-.08,0L305.46,9.57h-.06L255,.06a3.7,3.7,0,0,0-1.15,0L128.78,18a3.37,3.37,0,0,0-1.75.8,2.5,2.5,0,0,0-.24.22,3.38,3.38,0,0,0-.82,1.33,1.38,1.38,0,0,0-.08.27,3.07,3.07,0,0,0-.1.74,2.28,2.28,0,0,0,0,.37l0,166.49a3.51,3.51,0,0,0,2.48,3.35L244,227.06l.2.07a1.05,1.05,0,0,0,.24.06l.15,0a.91.91,0,0,0,.23,0l.34,0a2.56,2.56,0,0,0,.39,0,.49.49,0,0,0,.17,0,1.86,1.86,0,0,0,.34-.07l.21-.05,123.41-30.6a3.49,3.49,0,0,0,2.65-3.3L377,26.06V26A2,2,0,0,0,377,25.65ZM254.28,7l29.65,5.6L179.4,28.51h0l-30.1-6.38ZM132.77,185.63V25.77l43,9.13-.09,43.37,3.14-6.3.4,7.27,3.25-6.52.4,7.26,3.24-6.52.39,7.27,3.24-6.52.4,7.27L193.39,75l.4,7.27L197,75.77l.27-36.3,46.79,9.93h0l-2.33,169.67ZM247.7,43h0l-34.44-7.32L319.37,19.31h0l33.93,6.41ZM365.37,190.38,248.75,219.3l2.32-169.75h0L369.87,30.11Z"/><polygon class="a" points="244.21 208.76 242.85 369.09 126.82 400.29 125.81 230.53 125.82 230.53 244.21 208.76"/><polygon class="b" points="227.57 204.7 122.32 224.06 122.31 224.06 87.73 217.42 193.51 198.96 193.52 198.96 227.57 204.7"/><polygon class="b" points="157.94 192.98 53.74 210.9 53.73 210.9 23.51 205.11 128.19 187.97 157.94 192.98"/><polygon class="c" points="119.82 400.2 10.2 368.9 7.08 209.08 50.25 217.36 51.01 260.72 54.03 254.36 54.57 261.62 57.69 255.04 58.23 262.29 61.34 255.71 61.88 262.97 64.99 256.39 65.53 263.65 68.64 257.07 69.18 264.33 72.28 257.81 71.84 221.51 118.81 230.52 119.82 400.2"/><path class="d" d="M251.22,204.17a2.44,2.44,0,0,0-.09-.47c0-.09,0-.19-.08-.28s-.09-.23-.14-.35a.91.91,0,0,0-.07-.14.93.93,0,0,0-.11-.19,2.2,2.2,0,0,0-.21-.32,3.45,3.45,0,0,0-.53-.55,1.5,1.5,0,0,0-.25-.19l-.39-.23a4.08,4.08,0,0,0-.42-.19,4.21,4.21,0,0,0-.61-.16l-.27,0-54-9.1H194l-14.6-2.46h-.06L128.78,181a3.7,3.7,0,0,0-1.15,0L2.93,201.38a3.37,3.37,0,0,0-1.74.83,2.39,2.39,0,0,0-.23.22,3.49,3.49,0,0,0-.8,1.35,2.68,2.68,0,0,0-.07.27,3.06,3.06,0,0,0-.09.74c0,.13,0,.25,0,.37L3.25,371.62a3.5,3.5,0,0,0,2.54,3.3l116.4,33.23.2.06a1.05,1.05,0,0,0,.24.06.8.8,0,0,0,.15,0,.91.91,0,0,0,.23,0l.34,0,.39,0,.17,0a1.86,1.86,0,0,0,.34-.07l.21-.06,122.78-33a3.5,3.5,0,0,0,2.59-3.35l1.41-167.23v-.06C251.24,204.4,251.23,204.28,251.22,204.17Zm-123-16.2,29.75,5L53.74,210.9h0l-30.22-5.79ZM10.2,368.9,7.08,209.08l43.17,8.28L51,260.72l3-6.36.54,7.26L57.69,255l.54,7.25,3.11-6.58.54,7.26L65,256.39l.54,7.26,3.11-6.58.54,7.26,3.1-6.52-.44-36.3,47,9h0l1,169.68ZM122.32,224.06h0l-34.58-6.64L193.51,199h0l34,5.74Zm120.53,145-116,31.2-1-169.76h0l118.39-21.77Z"/><polygon class="a" points="489.87 214.1 485.37 374.38 368.75 403.3 371.07 233.55 371.08 233.55 489.87 214.1"/><polygon class="b" points="473.31 209.72 367.7 227.01 367.69 227.01 333.25 219.69 439.37 203.31 439.38 203.31 473.31 209.72"/><polygon class="b" points="403.93 196.64 299.4 212.51 299.39 212.51 269.29 206.13 374.28 191.04 403.93 196.64"/><polygon class="c" points="361.75 403.07 252.77 369.63 252.78 209.78 295.78 218.9 295.69 262.27 298.83 255.97 299.23 263.24 302.48 256.72 302.88 263.98 306.12 257.46 306.51 264.73 309.75 258.21 310.15 265.48 313.39 258.96 313.79 266.23 317.01 259.77 317.28 223.47 364.07 233.4 361.75 403.07"/><path class="d" d="M497,209.65a2.43,2.43,0,0,0-.08-.47c0-.09-.05-.19-.08-.28a2.48,2.48,0,0,0-.13-.35.91.91,0,0,0-.07-.14.75.75,0,0,0-.1-.2,2.2,2.2,0,0,0-.21-.32,2.17,2.17,0,0,0-.24-.29,3.44,3.44,0,0,0-.27-.27,1.5,1.5,0,0,0-.25-.19,3.14,3.14,0,0,0-.39-.24,2.23,2.23,0,0,0-.41-.2,4.24,4.24,0,0,0-.61-.17l-.27-.05-53.77-10.15-.08,0-14.55-2.74h-.06L375,184.06a3.7,3.7,0,0,0-1.15,0L248.78,202a3.37,3.37,0,0,0-1.75.8,2.5,2.5,0,0,0-.24.22,3.38,3.38,0,0,0-.82,1.33,1.38,1.38,0,0,0-.08.27,3.07,3.07,0,0,0-.1.74,2.28,2.28,0,0,0,0,.37l0,166.49a3.51,3.51,0,0,0,2.48,3.35L364,411.06l.2.07a1.05,1.05,0,0,0,.24.06l.15,0a.91.91,0,0,0,.23,0l.34,0,.39,0a.49.49,0,0,0,.17,0,1.86,1.86,0,0,0,.34-.07l.21-.05,123.41-30.6a3.49,3.49,0,0,0,2.65-3.3L497,210.06V210A2,2,0,0,0,497,209.65ZM374.28,191l29.65,5.6L299.4,212.51h0l-30.1-6.38ZM252.77,369.63V209.77l43,9.13-.09,43.37,3.14-6.3.4,7.27,3.25-6.52.4,7.26,3.24-6.52.39,7.27,3.24-6.52.4,7.27,3.24-6.52.4,7.27,3.22-6.46.27-36.3,46.79,9.93h0l-2.33,169.67ZM367.7,227h0l-34.44-7.32,106.12-16.38h0l33.93,6.41ZM485.37,374.38,368.75,403.3l2.32-169.75h0l118.79-19.44Z"/></svg>