<svg xmlns="http://www.w3.org/2000/svg" width="78" height="30.15" viewBox="0 0 78 30.15"><defs><style>.a{fill:#b2d9b2;}.b{fill:green;}.c{font-size:21px;font-family:SegoeUI-Semibold, Segoe UI;font-weight:600;}</style></defs><title>show-button</title><rect class="a" x="0.5" y="0.5" width="77" height="27" rx="11.5"/><path class="b" d="M67,2A11,11,0,0,1,78,13v4A11,11,0,0,1,67,28H13A11,11,0,0,1,2,17V13A11,11,0,0,1,13,2H67m0-1H13A12,12,0,0,0,1,13v4A12,12,0,0,0,13,29H67A12,12,0,0,0,79,17V13A12,12,0,0,0,67,1Z" transform="translate(-1 -1)"/><text class="c" transform="translate(12.89 21.18)">Show</text></svg>