<?xml version="1.0" encoding="utf-8"?>
<!-- Generator: Adobe Illustrator 23.0.1, SVG Export Plug-In . SVG Version: 6.00 Build 0)  -->
<svg version="1.1" id="Layer_1" xmlns="http://www.w3.org/2000/svg" xmlns:xlink="http://www.w3.org/1999/xlink" x="0px" y="0px"
	 viewBox="0 0 48.6 50" style="enable-background:new 0 0 48.6 50;" xml:space="preserve">
<style type="text/css">
	.st0{fill:#e5e5e5;}
	.st1{opacity:0.33;}
</style>
<g>
	<path class="st0" d="M36.1,2.6c0,0.1,0,0.2,0,0.3c0,2.2,0.6,4.2,1.5,5.9c1.7,3.1,4.8,5.1,8.3,5.1c0,0,0.1,0,0.1,0
		c-1.6,14.9-10,27.4-21.6,33.6c-0.1,0-0.1-0.1-0.2-0.1c-0.1,0-0.1,0.1-0.2,0.1c-11.6-6.2-20-18.7-21.6-33.6c0,0,0.1,0,0.1,0
		c3.5,0,6.6-2,8.3-5.1C12,7,12.5,5,12.5,2.9c0-0.1,0-0.2,0-0.3H36.1 M36.1,0H12.5c-0.7,0-1.4,0.3-1.8,0.8C10.2,1.3,9.9,2,9.9,2.7
		c0,0.1,0,0.2,0,0.2c0,1.6-0.4,3.2-1.2,4.6c-1.4,2.4-3.6,3.8-6.1,3.8h0c0,0-0.1,0-0.1,0c-0.7,0-1.4,0.3-1.9,0.8
		c-0.5,0.5-0.8,1.3-0.7,2c0.8,7.6,3.4,15,7.4,21.2c4,6.2,9.4,11.1,15.5,14.4c0.4,0.2,0.8,0.3,1.2,0.3c0.1,0,0.1,0,0.2,0
		c0.1,0,0.1,0,0.2,0c0.4,0,0.8-0.1,1.2-0.3c6.2-3.3,11.5-8.2,15.5-14.4c4.1-6.2,6.6-13.6,7.4-21.2c0.1-0.7-0.2-1.5-0.7-2
		c-0.5-0.5-1.2-0.8-1.9-0.8c0,0-0.1,0-0.1,0h0c-2.5,0-4.7-1.4-6.1-3.8c-0.8-1.4-1.2-3-1.2-4.6c0-0.1,0-0.2,0-0.2
		c0-0.7-0.2-1.4-0.7-1.9C37.5,0.3,36.8,0,36.1,0L36.1,0z"/>
</g>
<g class="st1">
	<path class="st0" d="M46.1,13.9c-1.6,14.9-10,27.4-21.6,33.6c-0.1,0-0.1-0.1-0.2-0.1V2.6h11.8c0,0.1,0,0.2,0,0.3
		c0,2.2,0.6,4.2,1.5,5.9c1.7,3.1,4.8,5.1,8.3,5.1C46,13.9,46,13.9,46.1,13.9z"/>
</g>
<g>
	<path class="st0" d="M12.4,26.3c-0.1-0.9-0.1-1.7-0.2-2.2c0.5,0.2,0.9,0.4,1.3,0.4c0.4,0.1,0.7,0.1,1,0.1c0.4,0,0.7-0.1,0.9-0.2
		c0.2-0.1,0.3-0.3,0.3-0.5c0-0.1,0-0.1,0-0.2c0-0.1-0.1-0.1-0.1-0.2c-0.1-0.1-0.1-0.2-0.3-0.3l-1.2-1.1c-0.3-0.2-0.5-0.4-0.6-0.5
		c-0.2-0.2-0.4-0.4-0.5-0.6c-0.1-0.2-0.2-0.4-0.3-0.6c-0.1-0.2-0.1-0.4-0.1-0.6c0-0.3,0-0.5,0.1-0.8c0.1-0.3,0.2-0.5,0.4-0.7
		c0.2-0.2,0.4-0.4,0.7-0.6c0.3-0.2,0.6-0.3,1-0.3c0.3-0.1,0.7-0.1,1.1-0.1c0.7,0,1.5,0.1,2.4,0.3c0,0.3,0,0.6,0,0.8
		c0,0.2,0.1,0.7,0.1,1.3c-0.4-0.2-0.8-0.3-1.1-0.3c-0.3-0.1-0.6-0.1-0.8-0.1c-0.3,0-0.6,0.1-0.8,0.2s-0.3,0.3-0.3,0.5
		c0,0.1,0,0.2,0.1,0.3c0,0.1,0.1,0.2,0.2,0.3c0.1,0.1,0.2,0.2,0.4,0.4c0.2,0.1,0.4,0.3,0.7,0.6l0.5,0.4c0.1,0.1,0.3,0.2,0.4,0.4
		c0.2,0.2,0.3,0.3,0.4,0.5c0.1,0.2,0.2,0.3,0.3,0.4c0.1,0.1,0.1,0.3,0.1,0.4c0,0.1,0,0.3,0,0.4c0,0.4-0.1,0.8-0.3,1.1
		c-0.2,0.4-0.4,0.6-0.8,0.9c-0.3,0.2-0.7,0.4-1.1,0.5s-0.8,0.1-1.3,0.1C14.3,26.6,13.4,26.5,12.4,26.3z"/>
	<path class="st0" d="M21,26.3c-0.1-0.9-0.1-1.7-0.2-2.2c0.5,0.2,0.9,0.4,1.3,0.4c0.4,0.1,0.7,0.1,1,0.1c0.4,0,0.7-0.1,0.9-0.2
		c0.2-0.1,0.3-0.3,0.3-0.5c0-0.1,0-0.1,0-0.2c0-0.1-0.1-0.1-0.1-0.2c-0.1-0.1-0.1-0.2-0.3-0.3l-1.2-1.1c-0.3-0.2-0.5-0.4-0.6-0.5
		c-0.2-0.2-0.4-0.4-0.5-0.6c-0.1-0.2-0.2-0.4-0.3-0.6c-0.1-0.2-0.1-0.4-0.1-0.6c0-0.3,0-0.5,0.1-0.8c0.1-0.3,0.2-0.5,0.4-0.7
		c0.2-0.2,0.4-0.4,0.7-0.6c0.3-0.2,0.6-0.3,1-0.3s0.7-0.1,1.1-0.1c0.7,0,1.5,0.1,2.4,0.3c0,0.3,0,0.6,0,0.8c0,0.2,0.1,0.7,0.1,1.3
		c-0.4-0.2-0.8-0.3-1.1-0.3c-0.3-0.1-0.6-0.1-0.8-0.1c-0.3,0-0.6,0.1-0.8,0.2C24.1,19.7,24,19.8,24,20c0,0.1,0,0.2,0.1,0.3
		s0.1,0.2,0.2,0.3c0.1,0.1,0.2,0.2,0.4,0.4c0.2,0.1,0.4,0.3,0.7,0.6l0.5,0.4c0.1,0.1,0.3,0.2,0.4,0.4c0.2,0.2,0.3,0.3,0.4,0.5
		c0.1,0.2,0.2,0.3,0.3,0.4c0.1,0.1,0.1,0.3,0.1,0.4c0,0.1,0,0.3,0,0.4c0,0.4-0.1,0.8-0.3,1.1c-0.2,0.4-0.4,0.6-0.8,0.9
		s-0.7,0.4-1.1,0.5c-0.4,0.1-0.8,0.1-1.3,0.1C23,26.6,22.1,26.5,21,26.3z"/>
	<path class="st0" d="M29.7,26.4c0.1-1,0.2-1.8,0.2-2.5c0.1-1.2,0.2-2.3,0.2-3.5c0-1.2,0.1-2.1,0.1-2.8c0.6,0,1.1,0,1.6,0
		c0.3,0,0.7,0,1.3,0l-0.2,2.3l-0.2,3.7l0,0.9c0.7,0,1.2,0,1.4,0c1.1,0,2,0,2.6,0l-0.1,2c-1.1,0-2.2,0-3.2,0
		C31.9,26.4,30.7,26.4,29.7,26.4z"/>
</g>
</svg>
