<?xml version="1.0" encoding="utf-8"?>
<!-- Generator: Adobe Illustrator 23.0.1, SVG Export Plug-In . SVG Version: 6.00 Build 0)  -->
<svg version="1.1" id="Layer_1" xmlns="http://www.w3.org/2000/svg" xmlns:xlink="http://www.w3.org/1999/xlink" x="0px" y="0px"
	 viewBox="0 0 228 234.35" style="enable-background:new 0 0 228 234.35;" xml:space="preserve">
<style type="text/css">
	.st0{fill:#FFFFFF;}
	.st1{opacity:0.33;}
</style>
<g>
	<path class="st0" d="M169.41,12c-0.02,0.5-0.03,1-0.03,1.5c0,10.11,2.6,19.54,7.11,27.5c8.16,14.42,22.55,24,38.94,24
		c0.19,0,0.38,0,0.56-0.01c-7.29,69.73-46.65,128.5-101.16,157.36c-0.28-0.15-0.55-0.3-0.83-0.45c-0.28,0.15-0.56,0.3-0.84,0.45
		C58.65,193.49,19.29,134.72,12,64.99C12.19,65,12.38,65,12.56,65c16.39,0,30.78-9.58,38.94-24c4.51-7.96,7.11-17.39,7.11-27.5
		c0-0.5-0.01-1-0.03-1.5H169.41 M169.41,0H58.59c-3.26,0-6.37,1.32-8.64,3.67c-2.26,2.34-3.47,5.51-3.36,8.76
		c0.01,0.36,0.02,0.71,0.02,1.07c0,7.71-1.92,15.17-5.55,21.59C34.71,46.3,24.06,53,12.56,53l-0.08,0
		c-0.16-0.01-0.32-0.01-0.49-0.01c-3.28,0-6.43,1.34-8.7,3.73c-2.42,2.55-3.6,6.02-3.24,9.51c3.74,35.75,15.75,70.08,34.75,99.3
		c18.75,28.84,43.9,52.15,72.74,67.42c1.76,0.93,3.69,1.39,5.61,1.39c0.28,0,0.56-0.01,0.84-0.03c0.28,0.02,0.56,0.03,0.84,0.03
		c1.93,0,3.86-0.46,5.61-1.39c28.83-15.26,53.98-38.58,72.74-67.42c19-29.22,31.01-63.55,34.75-99.3c0.36-3.49-0.82-6.97-3.24-9.51
		c-2.27-2.39-5.42-3.73-8.7-3.73c-0.16,0-0.32,0-0.49,0.01l-0.08,0c-11.5,0-22.15-6.7-28.5-17.91c-3.63-6.41-5.55-13.88-5.55-21.59
		c0-0.36,0.01-0.71,0.02-1.07c0.12-3.25-1.1-6.42-3.36-8.76C175.78,1.32,172.67,0,169.41,0L169.41,0z"/>
</g>
<g class="st1">
	<path class="st0" d="M216,64.99c-7.29,69.72-46.65,128.5-101.16,157.35c-0.28-0.14-0.56-0.29-0.84-0.45V12h55.41
		c-0.02,0.5-0.03,1-0.03,1.5c0,10.1,2.61,19.53,7.11,27.5c8.17,14.41,22.56,24,38.95,24C215.62,65,215.81,65,216,64.99z"/>
</g>
<g>
	<path class="st0" d="M58.03,123.04c-0.26-4.3-0.57-7.74-0.91-10.32c2.26,1.01,4.28,1.71,6.05,2.1c1.77,0.39,3.32,0.59,4.66,0.59
		c1.76,0,3.16-0.26,4.2-0.77c1.04-0.51,1.56-1.28,1.56-2.29c0-0.34-0.05-0.67-0.15-0.98c-0.1-0.31-0.29-0.67-0.58-1.06
		c-0.28-0.39-0.69-0.82-1.21-1.29l-5.7-4.96c-1.33-1.13-2.26-1.95-2.79-2.45c-1.07-1.03-1.91-1.99-2.5-2.88
		c-0.6-0.89-1.03-1.79-1.3-2.71c-0.27-0.92-0.41-1.89-0.41-2.92c0-1.23,0.22-2.44,0.65-3.62c0.43-1.18,1.08-2.29,1.95-3.32
		c0.87-1.03,2.02-1.92,3.45-2.66c1.43-0.75,2.97-1.26,4.6-1.53c1.63-0.27,3.32-0.41,5.06-0.41c3.41,0,7.12,0.39,11.14,1.18
		c0.06,1.39,0.13,2.67,0.21,3.83c0.08,1.16,0.27,3.19,0.58,6.1c-1.86-0.75-3.55-1.27-5.09-1.56c-1.53-0.29-2.86-0.44-3.97-0.44
		c-1.57,0-2.88,0.29-3.92,0.88c-1.04,0.59-1.56,1.31-1.56,2.18c0,0.4,0.08,0.8,0.24,1.18c0.16,0.38,0.46,0.83,0.91,1.35
		c0.44,0.51,1.03,1.08,1.76,1.7c0.73,0.62,1.87,1.53,3.42,2.74l2.18,1.73c0.65,0.53,1.34,1.16,2.09,1.91
		c0.75,0.75,1.39,1.48,1.94,2.21s0.96,1.39,1.26,2c0.29,0.61,0.51,1.22,0.65,1.83c0.14,0.62,0.21,1.28,0.21,1.98
		c0,1.82-0.43,3.55-1.3,5.19c-0.87,1.65-2.1,3-3.69,4.06c-1.59,1.06-3.35,1.8-5.25,2.23s-3.92,0.64-6.04,0.64
		C67.14,124.46,63.02,123.99,58.03,123.04z"/>
	<path class="st0" d="M98.5,123.04c-0.26-4.3-0.57-7.74-0.91-10.32c2.26,1.01,4.28,1.71,6.05,2.1c1.77,0.39,3.32,0.59,4.66,0.59
		c1.76,0,3.16-0.26,4.2-0.77c1.04-0.51,1.56-1.28,1.56-2.29c0-0.34-0.05-0.67-0.15-0.98c-0.1-0.31-0.29-0.67-0.58-1.06
		c-0.28-0.39-0.69-0.82-1.21-1.29l-5.7-4.96c-1.33-1.13-2.26-1.95-2.79-2.45c-1.07-1.03-1.91-1.99-2.5-2.88
		c-0.6-0.89-1.03-1.79-1.3-2.71c-0.27-0.92-0.41-1.89-0.41-2.92c0-1.23,0.22-2.44,0.65-3.62c0.43-1.18,1.08-2.29,1.95-3.32
		c0.87-1.03,2.02-1.92,3.45-2.66c1.43-0.75,2.97-1.26,4.6-1.53c1.63-0.27,3.32-0.41,5.06-0.41c3.41,0,7.12,0.39,11.14,1.18
		c0.06,1.39,0.13,2.67,0.21,3.83c0.08,1.16,0.27,3.19,0.58,6.1c-1.86-0.75-3.55-1.27-5.09-1.56c-1.53-0.29-2.86-0.44-3.97-0.44
		c-1.57,0-2.88,0.29-3.92,0.88c-1.04,0.59-1.56,1.31-1.56,2.18c0,0.4,0.08,0.8,0.24,1.18c0.16,0.38,0.46,0.83,0.91,1.35
		c0.44,0.51,1.03,1.08,1.76,1.7c0.73,0.62,1.87,1.53,3.42,2.74l2.18,1.73c0.65,0.53,1.34,1.16,2.09,1.91
		c0.75,0.75,1.39,1.48,1.94,2.21s0.96,1.39,1.26,2c0.29,0.61,0.51,1.22,0.65,1.83c0.14,0.62,0.21,1.28,0.21,1.98
		c0,1.82-0.43,3.55-1.3,5.19c-0.87,1.65-2.1,3-3.69,4.06c-1.59,1.06-3.34,1.8-5.25,2.23s-3.92,0.64-6.04,0.64
		C107.61,124.46,103.48,123.99,98.5,123.04z"/>
	<path class="st0" d="M139.03,123.67c0.51-4.76,0.87-8.65,1.09-11.66c0.43-5.49,0.74-10.94,0.96-16.36
		c0.21-5.42,0.32-9.85,0.32-13.31c2.74,0.04,5.17,0.06,7.29,0.06c1.43,0,3.49-0.02,6.17-0.06l-0.73,10.96l-0.91,17.13l-0.12,4.21
		c3.47,0.06,5.73,0.09,6.78,0.09c5.31,0,9.33-0.07,12.05-0.21l-0.67,9.14c-5.31-0.04-10.36-0.06-15.17-0.06
		C149.61,123.61,143.91,123.63,139.03,123.67z"/>
</g>
</svg>
