<?xml version="1.0" encoding="utf-8"?>
<!-- Generator: Adobe Illustrator 23.0.1, SVG Export Plug-In . SVG Version: 6.00 Build 0)  -->
<svg version="1.1" id="Layer_1" xmlns="http://www.w3.org/2000/svg" xmlns:xlink="http://www.w3.org/1999/xlink" x="0px" y="0px"
	 viewBox="0 0 67.5 50" style="enable-background:new 0 0 67.5 50;" xml:space="preserve">
<style type="text/css">
	.st0{fill:#e5e5e5;}
</style>
<title>storage</title>
<path class="st0" d="M66.2,0H1.3C0.6,0,0,0.6,0,1.3v11.2c0,0.7,0.6,1.3,1.3,1.3h64.9c0.7,0,1.3-0.6,1.3-1.3V1.3
	C67.5,0.6,66.9,0,66.2,0z M56.7,10.5c-2,0-3.6-1.6-3.6-3.6s1.6-3.6,3.6-3.6c2,0,3.6,1.6,3.6,3.6S58.7,10.5,56.7,10.5z"/>
<path class="st0" d="M66.2,18.1H1.3c-0.7,0-1.3,0.6-1.3,1.3v11.2c0,0.7,0.6,1.3,1.3,1.3h64.9c0.7,0,1.3-0.6,1.3-1.3V19.4
	C67.5,18.7,66.9,18.1,66.2,18.1z M56.7,28.6c-2,0-3.6-1.6-3.6-3.6s1.6-3.6,3.6-3.6c2,0,3.6,1.6,3.6,3.6S58.7,28.6,56.7,28.6z"/>
<path class="st0" d="M66.2,36.2H1.3c-0.7,0-1.3,0.6-1.3,1.3v11.2C0,49.4,0.6,50,1.3,50h64.9c0.7,0,1.3-0.6,1.3-1.3V37.5
	C67.5,36.8,66.9,36.2,66.2,36.2z M56.7,46.7c-2,0-3.6-1.6-3.6-3.6s1.6-3.6,3.6-3.6c2,0,3.6,1.6,3.6,3.6S58.7,46.7,56.7,46.7z"/>
</svg>
