<?xml version="1.0" encoding="utf-8"?>
<!-- Generator: Adobe Illustrator 23.0.3, SVG Export Plug-In . SVG Version: 6.00 Build 0)  -->
<svg version="1.1" id="Layer_1" xmlns="http://www.w3.org/2000/svg" xmlns:xlink="http://www.w3.org/1999/xlink" x="0px" y="0px"
	 viewBox="0 0 41.2 63.6" style="enable-background:new 0 0 41.2 63.6;" xml:space="preserve">
<style type="text/css">
	.st0{fill:#E5E5E5;}
</style>
<path class="st0" d="M20.7,0c-3.3,0-6.1,3.9-7.6,9.6h15.1C26.8,3.9,24,0,20.7,0z M20.7,6.5c-1.2,0-2.2-1-2.2-2.2s1-2.2,2.2-2.2
	s2.2,1,2.2,2.2S21.9,6.5,20.7,6.5z"/>
<path class="st0" d="M33.6,15c-1.3-1.6-3-3-5-4H12.8c-2,1-3.7,2.4-5,4H33.6z"/>
<path class="st0" d="M34.6,8.4h-2v3.2h2c1.9,0,3.4,1.5,3.4,3.4v42c0,1.9-1.5,3.4-3.4,3.4h-28c-1.9,0-3.4-1.5-3.4-3.4V15
	c0-1.9,1.5-3.4,3.4-3.4h2V8.4h-2C3,8.4,0,11.3,0,15v42c0,3.6,3,6.6,6.6,6.6h28c3.6,0,6.6-3,6.6-6.6V15C41.2,11.3,38.2,8.4,34.6,8.4z
	"/>
<rect x="7.6" y="23.5" class="st0" width="26" height="4"/>
<rect x="7.6" y="35.5" class="st0" width="26" height="4"/>
<rect x="7.6" y="47.5" class="st0" width="26" height="4"/>
</svg>
