<svg width="544" height="300" viewBox="0 0 544 300" fill="none" xmlns="http://www.w3.org/2000/svg">
<path fill-rule="evenodd" clip-rule="evenodd" d="M286.443 31.5039L248.775 106.768L315.092 183.023L192.008 196.886L383 198.868L286.443 31.5039V31.5039Z" fill="white"/>
<path fill-rule="evenodd" clip-rule="evenodd" d="M278.643 0L192.757 72.5591L129 181.147L183.273 175.642L278.643 0Z" fill="white"/>
<path d="M20.7329 248L0 299.144H7.04937L12.4402 284.807H35.3583L41.0882 299.144H48.0989L27.2909 248H20.7329ZM23.8236 254.205H23.9738C24.2502 255.775 24.5266 256.917 24.8031 257.63L33.2846 279.422H14.5503L22.9568 257.63C23.2835 256.798 23.5723 255.656 23.8236 254.205V254.205ZM184.13 261.767C179.079 261.767 174.845 263.562 171.427 267.152C168.035 270.719 166.339 275.344 166.339 281.027C166.339 287.042 167.897 291.714 171.013 295.042C174.129 298.347 178.413 300 183.866 300C189.445 300 193.931 298.836 197.323 296.505V291.013C193.68 293.723 189.684 295.078 185.337 295.078C181.467 295.078 178.426 293.972 176.215 291.761C174.004 289.55 172.847 286.411 172.747 282.345H200V279.278C200 273.786 198.618 269.495 195.854 266.404C193.089 263.313 189.181 261.767 184.13 261.767V261.767ZM156.512 261.981C154.275 261.981 152.252 262.707 150.443 264.157C148.633 265.584 147.29 267.58 146.41 270.148H146.259V262.623H140.077V299.144H146.259V280.527C146.259 276.461 147.139 273.251 148.898 270.897C150.682 268.543 152.894 267.366 155.532 267.366C157.568 267.366 159.126 267.758 160.206 268.543V262.48C159.352 262.147 158.12 261.981 156.512 261.981V261.981ZM54.3827 262.623V267.616H75.0769L52.2338 297.326V299.144H83.935V294.151H61.3183L84.1614 264.299V262.623H54.3827V262.623ZM93.4597 262.623V284.45C93.4597 294.817 98.0595 300 107.257 300C112.635 300 116.605 297.789 119.168 293.366H119.318V299.144H125.501V262.623H119.318V283.665C119.318 287.065 118.339 289.824 116.379 291.94C114.444 294.032 111.969 295.078 108.953 295.078C102.721 295.078 99.6047 291.227 99.6047 283.523V262.623H93.4597V262.623ZM184.017 266.689C187.033 266.689 189.383 267.628 191.067 269.506C192.776 271.385 193.642 274.012 193.667 277.388H172.822C173.299 274.202 174.556 271.622 176.592 269.649C178.627 267.675 181.102 266.689 184.017 266.689V266.689Z" fill="white"/>
<path d="M273.938 299H266.711L258.039 284.475C257.244 283.126 256.473 281.981 255.727 281.042C254.98 280.078 254.209 279.296 253.414 278.693C252.643 278.091 251.8 277.658 250.885 277.393C249.993 277.104 248.982 276.959 247.85 276.959H242.863V299H236.793V247.186H252.258C254.522 247.186 256.606 247.475 258.509 248.053C260.436 248.607 262.098 249.462 263.495 250.618C264.916 251.774 266.024 253.22 266.819 254.954C267.614 256.664 268.012 258.676 268.012 260.988C268.012 262.795 267.735 264.457 267.181 265.975C266.651 267.468 265.88 268.805 264.868 269.985C263.881 271.166 262.676 272.177 261.255 273.021C259.858 273.84 258.28 274.478 256.521 274.936V275.08C257.389 275.465 258.135 275.911 258.762 276.417C259.412 276.899 260.026 277.477 260.604 278.151C261.183 278.826 261.749 279.597 262.303 280.464C262.881 281.307 263.519 282.295 264.218 283.427L273.938 299ZM242.863 252.678V271.467H251.102C252.619 271.467 254.016 271.238 255.293 270.78C256.594 270.323 257.714 269.672 258.653 268.829C259.593 267.962 260.327 266.914 260.857 265.686C261.387 264.433 261.652 263.036 261.652 261.494C261.652 258.724 260.749 256.568 258.942 255.026C257.16 253.461 254.57 252.678 251.174 252.678H242.863Z" fill="white"/>
<path d="M310.826 281.981H284.702C284.799 286.101 285.907 289.28 288.026 291.521C290.146 293.761 293.061 294.881 296.771 294.881C300.938 294.881 304.768 293.508 308.261 290.762V296.326C305.009 298.687 300.709 299.867 295.361 299.867C290.134 299.867 286.027 298.193 283.04 294.845C280.053 291.472 278.56 286.739 278.56 280.645C278.56 274.887 280.186 270.202 283.438 266.589C286.714 262.951 290.772 261.133 295.614 261.133C300.456 261.133 304.202 262.699 306.852 265.83C309.501 268.962 310.826 273.31 310.826 278.874V281.981ZM304.756 276.959C304.732 273.538 303.901 270.877 302.263 268.974C300.649 267.071 298.397 266.119 295.506 266.119C292.712 266.119 290.339 267.119 288.388 269.118C286.437 271.118 285.232 273.731 284.774 276.959H304.756Z" fill="white"/>
<path d="M320.543 297.663V291.304C323.771 293.688 327.324 294.881 331.202 294.881C336.405 294.881 339.007 293.146 339.007 289.678C339.007 288.69 338.778 287.859 338.32 287.185C337.887 286.486 337.285 285.872 336.514 285.342C335.767 284.812 334.876 284.342 333.84 283.933C332.828 283.499 331.732 283.053 330.552 282.596C328.914 281.945 327.469 281.295 326.216 280.645C324.987 279.97 323.952 279.223 323.108 278.404C322.289 277.561 321.663 276.61 321.23 275.55C320.82 274.49 320.615 273.249 320.615 271.828C320.615 270.094 321.013 268.564 321.808 267.239C322.603 265.89 323.663 264.77 324.987 263.879C326.312 262.964 327.818 262.277 329.504 261.819C331.214 261.362 332.973 261.133 334.779 261.133C337.983 261.133 340.85 261.687 343.379 262.795V268.793C340.657 267.01 337.525 266.119 333.984 266.119C332.876 266.119 331.877 266.252 330.985 266.517C330.094 266.757 329.323 267.107 328.673 267.564C328.047 268.022 327.553 268.576 327.191 269.227C326.854 269.853 326.686 270.551 326.686 271.322C326.686 272.286 326.854 273.093 327.191 273.743C327.553 274.394 328.071 274.972 328.745 275.478C329.42 275.983 330.239 276.441 331.202 276.851C332.166 277.26 333.262 277.706 334.49 278.188C336.128 278.814 337.598 279.464 338.899 280.139C340.199 280.789 341.307 281.536 342.223 282.379C343.138 283.198 343.837 284.149 344.318 285.233C344.824 286.317 345.077 287.606 345.077 289.1C345.077 290.93 344.668 292.52 343.849 293.869C343.054 295.218 341.982 296.338 340.633 297.229C339.284 298.121 337.73 298.783 335.972 299.217C334.213 299.65 332.371 299.867 330.443 299.867C326.637 299.867 323.337 299.132 320.543 297.663Z" fill="white"/>
<path d="M372.644 299.867C367.176 299.867 362.804 298.145 359.527 294.7C356.276 291.231 354.65 286.643 354.65 280.934C354.65 274.719 356.348 269.865 359.744 266.372C363.141 262.879 367.73 261.133 373.511 261.133C379.027 261.133 383.327 262.831 386.41 266.228C389.518 269.624 391.071 274.333 391.071 280.355C391.071 286.257 389.397 290.991 386.049 294.556C382.725 298.097 378.256 299.867 372.644 299.867ZM373.077 266.119C369.271 266.119 366.26 267.42 364.044 270.021C361.828 272.599 360.72 276.164 360.72 280.717C360.72 285.101 361.84 288.558 364.08 291.087C366.32 293.616 369.319 294.881 373.077 294.881C376.907 294.881 379.846 293.64 381.894 291.159C383.965 288.678 385.001 285.149 385.001 280.572C385.001 275.947 383.965 272.382 381.894 269.877C379.846 267.372 376.907 266.119 373.077 266.119Z" fill="white"/>
<path d="M433.416 299H427.49V293.146H427.346C424.889 297.627 421.083 299.867 415.928 299.867C407.111 299.867 402.703 294.616 402.703 284.113V262H408.593V283.174C408.593 290.979 411.58 294.881 417.554 294.881C420.444 294.881 422.817 293.821 424.672 291.701C426.551 289.557 427.49 286.763 427.49 283.318V262H433.416V299Z" fill="white"/>
<path d="M467.667 267.998C466.631 267.203 465.138 266.806 463.187 266.806C460.657 266.806 458.538 267.998 456.827 270.383C455.141 272.768 454.298 276.02 454.298 280.139V299H448.372V262H454.298V269.624H454.443C455.286 267.022 456.574 264.999 458.309 263.554C460.043 262.084 461.982 261.35 464.126 261.35C465.668 261.35 466.848 261.518 467.667 261.855V267.998Z" fill="white"/>
<path d="M502.28 297.302C499.437 299.012 496.065 299.867 492.162 299.867C486.887 299.867 482.623 298.157 479.371 294.736C476.143 291.292 474.53 286.835 474.53 281.367C474.53 275.273 476.276 270.383 479.769 266.697C483.262 262.988 487.923 261.133 493.752 261.133C497.004 261.133 499.871 261.735 502.352 262.939V269.01C499.606 267.083 496.667 266.119 493.535 266.119C489.753 266.119 486.646 267.48 484.213 270.202C481.804 272.9 480.6 276.453 480.6 280.861C480.6 285.197 481.732 288.618 483.996 291.123C486.285 293.628 489.344 294.881 493.174 294.881C496.402 294.881 499.437 293.809 502.28 291.665V297.302Z" fill="white"/>
<path d="M543.938 281.981H517.814C517.91 286.101 519.018 289.28 521.138 291.521C523.258 293.761 526.172 294.881 529.882 294.881C534.049 294.881 537.88 293.508 541.372 290.762V296.326C538.12 298.687 533.821 299.867 528.473 299.867C523.246 299.867 519.139 298.193 516.152 294.845C513.165 291.472 511.671 286.739 511.671 280.645C511.671 274.887 513.297 270.202 516.549 266.589C519.825 262.951 523.884 261.133 528.726 261.133C533.568 261.133 537.313 262.699 539.963 265.83C542.613 268.962 543.938 273.31 543.938 278.874V281.981ZM537.867 276.959C537.843 273.538 537.012 270.877 535.374 268.974C533.76 267.071 531.508 266.119 528.617 266.119C525.823 266.119 523.45 267.119 521.499 269.118C519.548 271.118 518.344 273.731 517.886 276.959H537.867Z" fill="white"/>
</svg>
