<svg width="50" height="55" viewBox="0 0 50 55" fill="none" xmlns="http://www.w3.org/2000/svg">
<path d="M40.418 13.4039C39.1866 14.3096 38.9693 15.9269 39.911 17.0266C42.591 20.0671 43.9672 23.6897 43.9672 27.5065C43.9672 36.8866 35.4201 44.5201 24.9172 44.5201C24.4102 44.5201 23.9031 44.5201 23.3961 44.4554L24.4102 43.5498C25.5691 42.5794 25.5691 40.8974 24.4826 39.8624C23.3961 38.8273 21.5128 38.8273 20.3539 39.7977L12.6759 46.6549L20.2814 54.159C20.8609 54.7412 21.6577 55 22.4544 55C23.1788 55 23.8307 54.8059 24.4102 54.3531C25.5691 53.3827 25.714 51.7655 24.6275 50.6657L23.6134 49.6954C24.048 49.6954 24.555 49.7601 24.9896 49.7601C38.6796 49.7601 49.8344 39.7977 49.8344 27.5712C49.8344 22.5253 48.0235 17.8029 44.5467 13.8568C43.5326 12.6923 41.6494 12.4983 40.418 13.4039Z" fill="white"/>
<path d="M7.5331 41.9325C8.11257 41.9325 8.76447 41.7384 9.27151 41.415C10.5753 40.574 10.7926 38.9567 9.85098 37.7923C7.3158 34.8165 5.93956 31.2585 5.93956 27.5065C5.93956 18.1263 14.4867 10.4928 24.9896 10.4928C25.4242 10.4928 25.8588 10.4928 26.221 10.5575L25.2793 11.3985C24.1204 12.3689 24.1204 14.0508 25.2069 15.0859C25.7864 15.6034 26.5107 15.8622 27.3075 15.8622C28.0318 15.8622 28.7562 15.6034 29.3356 15.1506L37.086 8.35805L29.4081 0.853943C28.3216 -0.181107 26.5107 -0.310489 25.2793 0.659871C24.1204 1.63023 23.9755 3.2475 25.062 4.34724L26.0761 5.38229C25.6415 5.38229 25.2793 5.38229 24.8447 5.38229C11.1548 5.38229 0 15.3446 0 27.5712C0 32.4877 1.73841 37.0807 5.07036 41.0268C5.79469 41.609 6.66389 41.9325 7.5331 41.9325Z" fill="white"/>
</svg>
